<svg xmlns="http://www.w3.org/2000/svg" xmlns:xlink="http://www.w3.org/1999/xlink" width="778.44" height="419.099" viewBox="0 0 778.44 419.099">
  <defs>
    <linearGradient id="linear-gradient" x1="0.5" y1="1" x2="0.5" gradientUnits="objectBoundingBox">
      <stop offset="0" stop-color="gray" stop-opacity="0.251"/>
      <stop offset="0.54" stop-color="gray" stop-opacity="0.122"/>
      <stop offset="1" stop-color="gray" stop-opacity="0.102"/>
    </linearGradient>
    <linearGradient id="linear-gradient-2" x1="0.5" y1="1" x2="0.5" y2="-0.001" xlink:href="#linear-gradient"/>
  </defs>
  <g id="illu2" transform="translate(0 0.359)" opacity="0.25">
    <g id="Group_15" data-name="Group 15" transform="translate(301.965 28.791)" opacity="0.1">
      <ellipse id="Ellipse_2" data-name="Ellipse 2" cx="8.083" cy="10.858" rx="8.083" ry="10.858" transform="translate(30.463 224.146)" fill="#3f3d56"/>
      <path id="Path_24" data-name="Path 24" d="M534.51,454.487a13.383,13.383,0,0,0,1.69-6.639c0-6-3.622-10.858-8.09-10.858S520,441.865,520,447.863a13.383,13.383,0,0,0,1.69,6.639,13.87,13.87,0,0,0,0,13.27,13.87,13.87,0,0,0,0,13.27,13.338,13.338,0,0,0-1.69,6.639c0,5.99,3.622,10.858,8.083,10.858s8.09-4.868,8.09-10.858a13.339,13.339,0,0,0-1.69-6.639,13.87,13.87,0,0,0,0-13.27,13.871,13.871,0,0,0,0-13.27Z" transform="translate(-489.565 -265.94)" fill="#3f3d56"/>
      <ellipse id="Ellipse_3" data-name="Ellipse 3" cx="8.083" cy="10.858" rx="8.083" ry="10.858" transform="translate(30.463 157.794)" fill="#3f3d56"/>
      <ellipse id="Ellipse_4" data-name="Ellipse 4" cx="8.083" cy="10.858" rx="8.083" ry="10.858" transform="translate(30.463 144.523)" fill="#3f3d56"/>
      <path id="Path_25" data-name="Path 25" d="M485.438,266.83a38.756,38.756,0,0,1-3.012-4.547l21.237-3.578-22.97.175a40.755,40.755,0,0,1-.71-31.482L510.8,243.8l-28.41-21.44a38.3,38.3,0,0,1,68.943,3.249,40.579,40.579,0,0,1-5.021,41.2,39.912,39.912,0,0,1,4.418,7.244l-27.579,14.735,29.4-10.122a40.568,40.568,0,0,1-6.243,37.312,40.478,40.478,0,0,1-4.159,53.75,38,38,0,0,1-52.551,0,40.478,40.478,0,0,1-4.159-53.75,40.546,40.546,0,0,1,0-49.132Z" transform="translate(-477.149 -202.271)" fill="#e5e5e5"/>
      <path id="Path_26" data-name="Path 26" d="M554.6,324.352a40.207,40.207,0,0,1-8.289,24.566,40.478,40.478,0,0,1-4.159,53.75,38,38,0,0,1-52.551,0,40.478,40.478,0,0,1-4.159-53.75C480.247,342.155,554.6,319.892,554.6,324.352Z" transform="translate(-477.149 -235.228)" opacity="0.1"/>
    </g>
    <g id="Group_16" data-name="Group 16" transform="translate(406.068 65.106)" opacity="0.1">
      <ellipse id="Ellipse_5" data-name="Ellipse 5" cx="6.044" cy="8.111" rx="6.044" ry="8.111" transform="translate(22.764 167.361)" fill="#3f3d56"/>
      <path id="Path_27" data-name="Path 27" d="M666.584,440.394a9.985,9.985,0,0,0,1.257-4.955c0-4.482-2.706-8.118-6.037-8.118s-6.044,3.644-6.044,8.118a9.911,9.911,0,0,0,1.264,4.955,10.36,10.36,0,0,0,0,9.918,10.36,10.36,0,0,0,0,9.918,9.911,9.911,0,0,0-1.264,4.955c0,4.482,2.706,8.118,6.044,8.118s6.037-3.644,6.037-8.118a9.985,9.985,0,0,0-1.257-4.955,10.435,10.435,0,0,0,0-9.918,10.436,10.436,0,0,0,0-9.918Z" transform="translate(-633.003 -299.632)" fill="#3f3d56"/>
      <ellipse id="Ellipse_6" data-name="Ellipse 6" cx="6.044" cy="8.111" rx="6.044" ry="8.111" transform="translate(22.764 117.777)" fill="#3f3d56"/>
      <ellipse id="Ellipse_7" data-name="Ellipse 7" cx="6.044" cy="8.111" rx="6.044" ry="8.111" transform="translate(22.764 107.859)" fill="#3f3d56"/>
      <path id="Path_28" data-name="Path 28" d="M629.914,300.205a28.475,28.475,0,0,1-2.252-3.4l15.874-2.674-17.167.131a30.474,30.474,0,0,1-.554-23.531L648.849,283l-21.244-16.032a28.615,28.615,0,0,1,51.413,2.522A30.328,30.328,0,0,1,675.4,300.2a30.156,30.156,0,0,1,3.3,5.415l-20.6,10.982,21.968-7.564a30.324,30.324,0,0,1-4.666,27.882,30.247,30.247,0,0,1-3.088,40.177,28.4,28.4,0,0,1-39.28,0,30.247,30.247,0,0,1-3.088-40.177,30.3,30.3,0,0,1,0-36.714Z" transform="translate(-623.72 -252.103)" fill="#e5e5e5"/>
      <path id="Path_29" data-name="Path 29" d="M681.6,343.137a30.059,30.059,0,0,1-6.194,18.357,30.247,30.247,0,0,1-3.088,40.177,28.4,28.4,0,0,1-39.28,0,30.247,30.247,0,0,1-3.088-40.177C626.055,356.444,681.6,339.807,681.6,343.137Z" transform="translate(-623.726 -276.678)" opacity="0.1"/>
    </g>
    <g id="Group_17" data-name="Group 17" transform="translate(698.566 -0.359)" opacity="0.1">
      <ellipse id="Ellipse_8" data-name="Ellipse 8" cx="8.083" cy="10.858" rx="8.083" ry="10.858" transform="translate(31.009 224.146)" fill="#3f3d56"/>
      <path id="Path_30" data-name="Path 30" d="M1080.88,414.487a13.383,13.383,0,0,1-1.69-6.639c0-6,3.622-10.858,8.09-10.858s8.083,4.861,8.083,10.858a13.387,13.387,0,0,1-1.691,6.639,13.87,13.87,0,0,1,0,13.27,13.87,13.87,0,0,1,0,13.27,13.342,13.342,0,0,1,1.691,6.639c0,5.99-3.623,10.858-8.083,10.858s-8.09-4.868-8.09-10.858a13.34,13.34,0,0,1,1.691-6.639,13.87,13.87,0,0,1,0-13.27A13.87,13.87,0,0,1,1080.88,414.487Z" transform="translate(-1048.188 -225.94)" fill="#3f3d56"/>
      <ellipse id="Ellipse_9" data-name="Ellipse 9" cx="8.083" cy="10.858" rx="8.083" ry="10.858" transform="translate(31.009 157.794)" fill="#3f3d56"/>
      <ellipse id="Ellipse_10" data-name="Ellipse 10" cx="8.083" cy="10.858" rx="8.083" ry="10.858" transform="translate(31.009 144.523)" fill="#3f3d56"/>
      <path id="Path_31" data-name="Path 31" d="M1104.89,226.83a38.754,38.754,0,0,0,3.012-4.547l-21.237-3.578,22.97.175a40.755,40.755,0,0,0,.71-31.482l-30.818,16.4,28.41-21.44a38.3,38.3,0,0,0-68.944,3.249,40.58,40.58,0,0,0,5.021,41.2,39.929,39.929,0,0,0-4.418,7.244l27.579,14.735-29.4-10.122a40.568,40.568,0,0,0,6.243,37.312,40.478,40.478,0,0,0,4.159,53.75,38.005,38.005,0,0,0,52.551,0,40.478,40.478,0,0,0,4.159-53.75,40.546,40.546,0,0,0,0-49.132Z" transform="translate(-1035.541 -162.271)" fill="#e5e5e5"/>
      <path id="Path_32" data-name="Path 32" d="M1035.81,284.352a40.208,40.208,0,0,0,8.289,24.566,40.478,40.478,0,0,0,4.159,53.75,38.005,38.005,0,0,0,52.551,0,40.478,40.478,0,0,0,4.159-53.75C1110.159,302.155,1035.81,279.892,1035.81,284.352Z" transform="translate(-1035.619 -195.228)" opacity="0.1"/>
    </g>
    <g id="Group_18" data-name="Group 18" transform="translate(630.534 60.733)" opacity="0.1">
      <ellipse id="Ellipse_11" data-name="Ellipse 11" cx="6.044" cy="8.111" rx="6.044" ry="8.111" transform="translate(23.05 167.361)" fill="#3f3d56"/>
      <path id="Path_33" data-name="Path 33" d="M973.487,434.394a9.986,9.986,0,0,1-1.257-4.955c0-4.482,2.706-8.118,6.037-8.118s6.044,3.644,6.044,8.118a9.912,9.912,0,0,1-1.264,4.956,10.359,10.359,0,0,1,0,9.918,10.359,10.359,0,0,1,0,9.918,9.91,9.91,0,0,1,1.264,4.955c0,4.482-2.706,8.118-6.044,8.118s-6.037-3.644-6.037-8.118a9.986,9.986,0,0,1,1.257-4.955,10.435,10.435,0,0,1,0-9.918,10.435,10.435,0,0,1,0-9.918Z" transform="translate(-949.165 -293.632)" fill="#3f3d56"/>
      <ellipse id="Ellipse_12" data-name="Ellipse 12" cx="6.044" cy="8.111" rx="6.044" ry="8.111" transform="translate(23.05 117.777)" fill="#3f3d56"/>
      <ellipse id="Ellipse_13" data-name="Ellipse 13" cx="6.044" cy="8.111" rx="6.044" ry="8.111" transform="translate(23.05 107.859)" fill="#3f3d56"/>
      <path id="Path_34" data-name="Path 34" d="M991.466,294.205a28.473,28.473,0,0,0,2.252-3.4l-15.874-2.674,17.167.131a30.473,30.473,0,0,0,.554-23.531L972.53,277l21.244-16.032a28.615,28.615,0,0,0-51.413,2.522,30.328,30.328,0,0,0,3.62,30.708,30.156,30.156,0,0,0-3.3,5.415l20.6,10.982-21.926-7.557a30.324,30.324,0,0,0,4.666,27.882A30.248,30.248,0,0,0,949.1,371.1a28.4,28.4,0,0,0,39.28,0,30.247,30.247,0,0,0,3.088-40.177,30.3,30.3,0,0,0,0-36.714Z" transform="translate(-939.757 -246.103)" fill="#e5e5e5"/>
      <path id="Path_35" data-name="Path 35" d="M939.794,337.137a30.056,30.056,0,0,0,6.193,18.357,30.247,30.247,0,0,0,3.088,40.177,28.4,28.4,0,0,0,39.28,0,30.247,30.247,0,0,0,3.088-40.177C995.336,350.444,939.794,333.807,939.794,337.137Z" transform="translate(-939.763 -270.678)" opacity="0.1"/>
    </g>
    <g id="Group_19" data-name="Group 19" transform="translate(5.191 -0.237)" opacity="0.1">
      <ellipse id="Ellipse_14" data-name="Ellipse 14" cx="8.083" cy="10.858" rx="8.083" ry="10.858" transform="translate(30.471 224.024)" fill="#3f3d56"/>
      <path id="Path_36" data-name="Path 36" d="M116.685,414.487a13.384,13.384,0,0,0,1.69-6.639c0-6-3.622-10.858-8.083-10.858s-8.083,4.861-8.083,10.858a13.384,13.384,0,0,0,1.683,6.639,13.915,13.915,0,0,0,0,13.27,13.915,13.915,0,0,0,0,13.27,13.332,13.332,0,0,0-1.683,6.639c0,5.99,3.615,10.858,8.083,10.858s8.1-4.853,8.1-10.844a13.339,13.339,0,0,0-1.69-6.639,13.87,13.87,0,0,0,0-13.27,13.87,13.87,0,0,0,0-13.27Z" transform="translate(-71.739 -226.063)" fill="#3f3d56"/>
      <ellipse id="Ellipse_15" data-name="Ellipse 15" cx="8.083" cy="10.858" rx="8.083" ry="10.858" transform="translate(30.471 157.672)" fill="#3f3d56"/>
      <ellipse id="Ellipse_16" data-name="Ellipse 16" cx="8.083" cy="10.858" rx="8.083" ry="10.858" transform="translate(30.471 144.401)" fill="#3f3d56"/>
      <path id="Path_37" data-name="Path 37" d="M67.613,226.875a39.657,39.657,0,0,1-3.011-4.547l21.244-3.578-22.991.211a40.755,40.755,0,0,1-.71-31.482l30.825,16.4-28.41-21.44a38.287,38.287,0,0,1,68.873,3.3,40.574,40.574,0,0,1-4.95,41.152,39.918,39.918,0,0,1,4.418,7.244l-27.586,14.7,29.4-10.122a40.613,40.613,0,0,1-6.25,37.312,40.478,40.478,0,0,1-4.159,53.75,38,38,0,0,1-52.551,0,40.478,40.478,0,0,1-4.159-53.75,40.547,40.547,0,0,1,0-49.132Z" transform="translate(-59.309 -162.439)" fill="#e5e5e5"/>
      <path id="Path_38" data-name="Path 38" d="M136.756,284.352a40.208,40.208,0,0,1-8.289,24.566,40.478,40.478,0,0,1-4.159,53.75,38,38,0,0,1-52.551,0,40.478,40.478,0,0,1-4.159-53.75C62.406,302.155,136.756,279.892,136.756,284.352Z" transform="translate(-59.309 -195.35)" opacity="0.1"/>
    </g>
    <g id="Group_20" data-name="Group 20" transform="translate(92.959 60.733)" opacity="0.1">
      <ellipse id="Ellipse_17" data-name="Ellipse 17" cx="6.044" cy="8.111" rx="6.044" ry="8.111" transform="translate(22.763 167.361)" fill="#3f3d56"/>
      <path id="Path_39" data-name="Path 39" d="M225.754,434.394a9.986,9.986,0,0,0,1.257-4.955c0-4.482-2.7-8.118-6.037-8.118s-6.044,3.644-6.044,8.118a9.986,9.986,0,0,0,1.264,4.955,10.36,10.36,0,0,0,0,9.918,10.36,10.36,0,0,0,0,9.918,9.986,9.986,0,0,0-1.264,4.956c0,4.482,2.706,8.118,6.044,8.118s6.037-3.644,6.037-8.118a9.986,9.986,0,0,0-1.257-4.955,10.435,10.435,0,0,0,0-9.918,10.435,10.435,0,0,0,0-9.918Z" transform="translate(-192.166 -293.632)" fill="#3f3d56"/>
      <ellipse id="Ellipse_18" data-name="Ellipse 18" cx="6.044" cy="8.111" rx="6.044" ry="8.111" transform="translate(22.763 117.777)" fill="#3f3d56"/>
      <ellipse id="Ellipse_19" data-name="Ellipse 19" cx="6.044" cy="8.111" rx="6.044" ry="8.111" transform="translate(22.763 107.859)" fill="#3f3d56"/>
      <path id="Path_40" data-name="Path 40" d="M189.074,294.2a29.343,29.343,0,0,1-2.251-3.4l15.874-2.674-17.167.131a30.473,30.473,0,0,1-.554-23.531L208.009,277l-21.244-16.032a28.615,28.615,0,0,1,51.413,2.522,30.328,30.328,0,0,1-3.62,30.708,29.365,29.365,0,0,1,3.3,5.415l-20.6,10.982,21.968-7.564a30.324,30.324,0,0,1-4.666,27.882,30.247,30.247,0,0,1-3.088,40.178,28.4,28.4,0,0,1-39.28,0,30.247,30.247,0,0,1-3.088-40.177,30.3,30.3,0,0,1,0-36.714Z" transform="translate(-182.88 -246.103)" fill="#e5e5e5"/>
      <path id="Path_41" data-name="Path 41" d="M240.757,337.137a30.057,30.057,0,0,1-6.193,18.357,30.247,30.247,0,0,1-3.088,40.177,28.4,28.4,0,0,1-39.28,0,30.247,30.247,0,0,1-3.088-40.177C185.2,350.444,240.757,333.807,240.757,337.137Z" transform="translate(-182.886 -270.678)" opacity="0.1"/>
    </g>
    <ellipse id="Ellipse_20" data-name="Ellipse 20" cx="389.22" cy="6.457" rx="389.22" ry="6.457" transform="translate(0 352.811)" fill="#e5e5e5" opacity="0.1"/>
    <ellipse id="Ellipse_21" data-name="Ellipse 21" cx="389.22" cy="6.457" rx="389.22" ry="6.457" transform="translate(0 405.827)" fill="#e5e5e5" opacity="0.1"/>
    <ellipse id="Ellipse_22" data-name="Ellipse 22" cx="389.22" cy="6.457" rx="389.22" ry="6.457" transform="translate(0 242.166)" fill="#e5e5e5" opacity="0.1"/>
    <ellipse id="Ellipse_23" data-name="Ellipse 23" cx="389.22" cy="6.457" rx="389.22" ry="6.457" transform="translate(0 297.485)" fill="#e5e5e5" opacity="0.1"/>
    <path id="Path_42" data-name="Path 42" d="M844.9,266.392a12.694,12.694,0,0,0-7.529.845,10.858,10.858,0,0,1-9.049,0,12.408,12.408,0,0,0-10.654.211,6.431,6.431,0,0,1-3.061.787c-4.318,0-7.905-4.46-8.651-10.341a8.579,8.579,0,0,0,2.131-2.383c2.529-4.183,6.442-6.872,10.846-6.872s8.267,2.653,10.8,6.792a8.249,8.249,0,0,0,7.167,4.037h.113C840.486,259.433,843.462,262.26,844.9,266.392Z" transform="translate(-270.456 -186.058)" fill="#e5e5e5" opacity="0.1"/>
    <path id="Path_43" data-name="Path 43" d="M858.044,241.794l-6.975,4.533,4.261-7.9a6.782,6.782,0,0,0-4.219-1.538H851a7.862,7.862,0,0,1-1.42-.109l-2.4,1.538,1.016-1.895a8.4,8.4,0,0,1-4.141-3.221l-4.262,2.755,2.671-4.985a12.273,12.273,0,0,0-9.475-4.912c-4.4,0-8.317,2.682-10.853,6.865a8.055,8.055,0,0,1-7.166,3.964h-.234c-4.858,0-8.793,5.648-8.793,12.615s3.935,12.622,8.793,12.622a6.535,6.535,0,0,0,3.061-.787,12.394,12.394,0,0,1,10.654-.219,10.789,10.789,0,0,0,9.049,0,12.435,12.435,0,0,1,10.555.211,6.471,6.471,0,0,0,3.026.772c4.858,0,8.793-5.655,8.793-12.622A16.318,16.318,0,0,0,858.044,241.794Z" transform="translate(-270.45 -179.933)" fill="#e5e5e5" opacity="0.1"/>
    <path id="Path_44" data-name="Path 44" d="M432.145,262.965a8.907,8.907,0,0,0-5.277.59,7.577,7.577,0,0,1-6.328,0,8.661,8.661,0,0,0-7.451.153,4.607,4.607,0,0,1-2.131.547c-3.019,0-5.533-3.119-6.058-7.236a6.005,6.005,0,0,0,1.513-1.669c1.769-2.915,4.51-4.81,7.593-4.81s5.789,1.858,7.557,4.751a5.784,5.784,0,0,0,5.022,2.828h.078C429.049,258.1,431.13,260.087,432.145,262.965Z" transform="translate(-154.251 -186.574)" fill="#e5e5e5" opacity="0.1"/>
    <path id="Path_45" data-name="Path 45" d="M441.337,245.759l-4.879,3.177,2.962-5.531a4.719,4.719,0,0,0-2.948-1.079h-.085a5.188,5.188,0,0,1-1.009-.08l-1.655,1.079.71-1.326a5.914,5.914,0,0,1-2.9-2.252l-2.962,1.924,1.875-3.483a8.6,8.6,0,0,0-6.634-3.447c-3.083,0-5.824,1.88-7.593,4.81a5.647,5.647,0,0,1-5.022,2.777h-.163c-3.4,0-6.158,3.95-6.158,8.832s2.756,8.832,6.158,8.832a4.524,4.524,0,0,0,2.131-.554,8.674,8.674,0,0,1,7.444-.146,7.453,7.453,0,0,0,6.335.044,8.7,8.7,0,0,1,7.387.146,4.509,4.509,0,0,0,2.131.539c3.395,0,6.151-3.957,6.151-8.832a11.407,11.407,0,0,0-1.278-5.429Z" transform="translate(-154.245 -182.288)" fill="#e5e5e5" opacity="0.1"/>
    <path id="Path_46" data-name="Path 46" d="M321.59,341.375a8.893,8.893,0,0,1,5.27.59,7.59,7.59,0,0,0,6.335,0,8.688,8.688,0,0,1,7.451.146,4.5,4.5,0,0,0,2.131.554c3.019,0,5.533-3.126,6.051-7.244a5.884,5.884,0,0,1-1.506-1.669c-1.776-2.915-4.517-4.8-7.593-4.8s-5.789,1.851-7.564,4.751a5.784,5.784,0,0,1-5.014,2.828h-.078C324.68,336.543,322.591,338.518,321.59,341.375Z" transform="translate(-130.112 -207.843)" fill="#e5e5e5" opacity="0.1"/>
    <path id="Path_47" data-name="Path 47" d="M308.116,324.2,313,327.379l-2.969-5.524a4.747,4.747,0,0,1,2.955-1.086h.078a5.9,5.9,0,0,0,1.016-.073l1.655,1.071-.71-1.319a5.908,5.908,0,0,0,2.891-2.252l2.962,1.924-1.847-3.491a8.594,8.594,0,0,1,6.634-3.44c3.075,0,5.824,1.88,7.593,4.81a5.648,5.648,0,0,0,5.014,2.777h.17c3.4,0,6.151,3.957,6.151,8.832s-2.756,8.832-6.151,8.832a4.517,4.517,0,0,1-2.131-.547,8.66,8.66,0,0,0-7.451-.153,7.551,7.551,0,0,1-3.182.729,7.645,7.645,0,0,1-3.154-.685,8.687,8.687,0,0,0-7.38.146,4.51,4.51,0,0,1-2.131.539c-3.4,0-6.158-3.95-6.158-8.832a11.49,11.49,0,0,1,1.257-5.436Z" transform="translate(-125.843 -203.568)" fill="#e5e5e5" opacity="0.1"/>
    <path id="Path_48" data-name="Path 48" d="M713.059,624.006c1.854-3.527-.249-7.841-2.663-10.982s-5.369-6.413-5.306-10.414c.092-5.75,6.044-9.153,10.8-12.2a53.049,53.049,0,0,0,9.695-8.016,14.645,14.645,0,0,0,2.976-4.1c.987-2.245.959-4.81.9-7.287q-.305-12.309-1.186-24.6" transform="translate(-241.229 -266.831)" fill="none" stroke="#3f3d56" stroke-miterlimit="10" stroke-width="4"/>
    <path id="Path_49" data-name="Path 49" d="M743.32,542.665a9,9,0,0,0-4.368-7.353l-1.96,3.972.064-4.81a8.631,8.631,0,0,0-9.706,3.571,9.159,9.159,0,0,0,.358,10.573,8.608,8.608,0,0,0,9.924,2.871,8.977,8.977,0,0,0,5.689-8.823Z" transform="translate(-247.242 -263.493)" fill="#e5e5e5"/>
    <path id="Path_50" data-name="Path 50" d="M721.751,624.332A8.674,8.674,0,0,1,712.138,629a9.023,9.023,0,0,1-6.325-11.953,8.673,8.673,0,0,1,16.336.095l-5.462,4.562,6.009-1.457A9.109,9.109,0,0,1,721.751,624.332Z" transform="translate(-241.27 -284.442)" fill="#e5e5e5"/>
    <path id="Path_51" data-name="Path 51" d="M718.675,598.593a8.8,8.8,0,0,1-9.043-7.531,8.979,8.979,0,0,1,6.273-10.068l-.05,3.695,1.982-4.023h0a8.976,8.976,0,0,1,.817,17.927Z" transform="translate(-242.512 -276.12)" fill="#e5e5e5"/>
    <path id="Path_52" data-name="Path 52" d="M748.549,578.706A8.733,8.733,0,0,1,740,573.125,9.13,9.13,0,0,1,742.331,563a8.569,8.569,0,0,1,10.082-1.06l-1.541,4.372,3.146-3.192a9.131,9.131,0,0,1,2.312,9.667,8.77,8.77,0,0,1-7.809,5.906Z" transform="translate(-251.157 -270.728)" fill="#e5e5e5"/>
    <path id="Path_53" data-name="Path 53" d="M742.136,546.887c-2.017.226-3.978.867-6.009,1s-4.261-.372-5.526-1.982a28.956,28.956,0,0,1-1.619-2.915,6.293,6.293,0,0,0-2.2-2.128,9.163,9.163,0,0,0,.891,9.594,8.624,8.624,0,0,0,8.849,3.229,8.864,8.864,0,0,0,6.6-6.862C742.8,546.828,742.462,546.85,742.136,546.887Z" transform="translate(-247.236 -265.325)" opacity="0.1"/>
    <path id="Path_54" data-name="Path 54" d="M748.565,580.617a8.676,8.676,0,0,1-7.688-3.984,9.171,9.171,0,0,1-.629-8.813A6.556,6.556,0,0,1,742,569.627a30.6,30.6,0,0,0,1.733,2.966,7.027,7.027,0,0,0,5.8,2.077c2.109-.109,4.148-.729,6.25-.911.291,0,.582-.044.881-.051A8.806,8.806,0,0,1,748.565,580.617Z" transform="translate(-251.172 -272.638)" opacity="0.1"/>
    <path id="Path_55" data-name="Path 55" d="M718.676,600.569a8.673,8.673,0,0,1-7.634-3.909,9.17,9.17,0,0,1-.754-8.72,7.187,7.187,0,0,1,1.854,1.822,30.162,30.162,0,0,0,1.9,3.024,7.8,7.8,0,0,0,6.186,2.186c2.23-.095,4.262-.59,6.392-.729a8.8,8.8,0,0,1-7.941,6.326Z" transform="translate(-242.514 -278.096)" opacity="0.1"/>
    <path id="Path_56" data-name="Path 56" d="M721.751,626.457a8.674,8.674,0,0,1-9.614,4.666,9.023,9.023,0,0,1-6.325-11.953,8.8,8.8,0,0,1,1.918,1.756c.831,1.035,1.378,2.186,2.344,3.185,1.783,1.8,4.674,2.543,7.238,2.609a35.783,35.783,0,0,0,4.439-.262Z" transform="translate(-241.27 -286.567)" opacity="0.1"/>
    <path id="Path_57" data-name="Path 57" d="M103.059,552.006c1.854-3.527-.249-7.841-2.663-10.982s-5.37-6.427-5.306-10.414c.092-5.75,6.044-9.153,10.8-12.2a53.044,53.044,0,0,0,9.695-8.016,14.647,14.647,0,0,0,2.976-4.1c.987-2.245.959-4.81.895-7.287q-.313-12.308-1.186-24.6" transform="translate(-64.485 -247.3)" fill="none" stroke="#3f3d56" stroke-miterlimit="10" stroke-width="4"/>
    <path id="Path_58" data-name="Path 58" d="M133.32,470.665a9,9,0,0,0-4.368-7.353l-1.96,3.972.064-4.81a8.631,8.631,0,0,0-9.706,3.571,9.159,9.159,0,0,0,.358,10.573,8.608,8.608,0,0,0,9.924,2.871,8.977,8.977,0,0,0,5.688-8.824Z" transform="translate(-70.498 -243.963)" fill="#e5e5e5"/>
    <path id="Path_59" data-name="Path 59" d="M111.751,552.332A8.674,8.674,0,0,1,102.138,557a9.023,9.023,0,0,1-6.325-11.953,8.673,8.673,0,0,1,16.336.095l-5.462,4.562,6.009-1.457A9.11,9.11,0,0,1,111.751,552.332Z" transform="translate(-64.526 -264.911)" fill="#e5e5e5"/>
    <path id="Path_60" data-name="Path 60" d="M108.675,526.593a8.8,8.8,0,0,1-9.043-7.531,8.979,8.979,0,0,1,6.273-10.068l-.05,3.695,1.982-4.023h0a8.976,8.976,0,0,1,.817,17.927Z" transform="translate(-65.769 -256.59)" fill="#e5e5e5"/>
    <path id="Path_61" data-name="Path 61" d="M138.549,506.706A8.733,8.733,0,0,1,130,501.124,9.13,9.13,0,0,1,132.331,491a8.569,8.569,0,0,1,10.082-1.06l-1.541,4.372,3.146-3.192a9.131,9.131,0,0,1,2.312,9.667,8.77,8.77,0,0,1-7.809,5.906Z" transform="translate(-74.413 -251.197)" fill="#e5e5e5"/>
    <path id="Path_62" data-name="Path 62" d="M132.136,474.887c-2.017.226-3.977.867-6.009,1s-4.262-.372-5.526-1.982a28.976,28.976,0,0,1-1.619-2.915,6.291,6.291,0,0,0-2.2-2.128,9.163,9.163,0,0,0,.891,9.594,8.624,8.624,0,0,0,8.85,3.229,8.864,8.864,0,0,0,6.6-6.862C132.8,474.828,132.462,474.85,132.136,474.887Z" transform="translate(-70.493 -245.795)" opacity="0.1"/>
    <path id="Path_63" data-name="Path 63" d="M138.565,508.617a8.676,8.676,0,0,1-7.688-3.984,9.171,9.171,0,0,1-.629-8.813A6.558,6.558,0,0,1,132,497.627a30.575,30.575,0,0,0,1.733,2.966,7.026,7.026,0,0,0,5.8,2.077c2.109-.109,4.148-.729,6.25-.911.291,0,.582-.044.881-.051A8.805,8.805,0,0,1,138.565,508.617Z" transform="translate(-74.428 -253.108)" opacity="0.1"/>
    <path id="Path_64" data-name="Path 64" d="M108.676,528.569a8.673,8.673,0,0,1-7.634-3.909,9.17,9.17,0,0,1-.754-8.72,7.186,7.186,0,0,1,1.854,1.822,30.17,30.17,0,0,0,1.9,3.024,7.8,7.8,0,0,0,6.186,2.186c2.23-.095,4.262-.59,6.392-.729A8.8,8.8,0,0,1,108.676,528.569Z" transform="translate(-65.77 -258.565)" opacity="0.1"/>
    <path id="Path_65" data-name="Path 65" d="M111.751,554.457a8.674,8.674,0,0,1-9.614,4.666,9.023,9.023,0,0,1-6.325-11.953,8.809,8.809,0,0,1,1.918,1.756c.831,1.035,1.378,2.186,2.344,3.185,1.783,1.8,4.673,2.543,7.238,2.609A35.8,35.8,0,0,0,111.751,554.457Z" transform="translate(-64.526 -267.037)" opacity="0.1"/>
    <path id="Path_66" data-name="Path 66" d="M505.823,469.642c-1.854-3.52.249-7.834,2.671-10.975s5.362-6.413,5.3-10.414c-.085-5.757-6.037-9.153-10.8-12.2a52.836,52.836,0,0,1-9.688-8.016,14.39,14.39,0,0,1-2.983-4.088c-.98-2.252-.952-4.81-.895-7.287q.32-12.308,1.186-24.6" transform="translate(-178.736 -224.962)" fill="none" stroke="#3f3d56" stroke-miterlimit="10" stroke-width="4"/>
    <path id="Path_67" data-name="Path 67" d="M478.386,388.305a9,9,0,0,1,4.361-7.353l1.96,3.972-.057-4.81a8.751,8.751,0,0,1,2.876-.357,8.973,8.973,0,1,1-9.141,8.548Z" transform="translate(-175.54 -221.622)" fill="#e5e5e5"/>
    <path id="Path_68" data-name="Path 68" d="M499.946,469.945A8.665,8.665,0,0,0,510.03,474.5a9.02,9.02,0,0,0-1.017-17.526,8.72,8.72,0,0,0-9.486,5.75l5.462,4.562-6.009-1.458A9.109,9.109,0,0,0,499.946,469.945Z" transform="translate(-181.51 -242.543)" fill="#e5e5e5"/>
    <path id="Path_69" data-name="Path 69" d="M503.02,444.233a8.8,8.8,0,0,0,9.051-7.527,8.979,8.979,0,0,0-6.274-10.072l.043,3.695-1.982-4.023h0a8.832,8.832,0,0,0-9.162,8.519,9.079,9.079,0,0,0,.376,3.061,8.779,8.779,0,0,0,7.948,6.347Z" transform="translate(-180.265 -234.248)" fill="#e5e5e5"/>
    <path id="Path_70" data-name="Path 70" d="M473.131,424.326a8.734,8.734,0,0,0,8.546-5.586,9.129,9.129,0,0,0-2.336-10.117,8.569,8.569,0,0,0-10.081-1.058l1.548,4.372-3.182-3.126a8.994,8.994,0,0,0-2.841,6.194,8.9,8.9,0,0,0,.22,2.47A8.8,8.8,0,0,0,473.131,424.326Z" transform="translate(-171.599 -228.851)" fill="#e5e5e5"/>
    <path id="Path_71" data-name="Path 71" d="M479.65,392.527c2.017.226,3.978.867,6,1s4.262-.372,5.533-1.982a28.909,28.909,0,0,0,1.612-2.915,6.312,6.312,0,0,1,2.209-2.128,9.162,9.162,0,0,1-.889,9.6,8.624,8.624,0,0,1-8.855,3.228,8.865,8.865,0,0,1-6.591-6.873C478.99,392.461,479.316,392.49,479.65,392.527Z" transform="translate(-175.625 -223.454)" opacity="0.1"/>
    <path id="Path_72" data-name="Path 72" d="M473.234,426.237a8.683,8.683,0,0,0,7.682-3.987,9.178,9.178,0,0,0,.635-8.809,6.585,6.585,0,0,0-1.761,1.807,30.58,30.58,0,0,1-1.733,2.966,7,7,0,0,1-5.8,2.077c-2.109-.109-4.148-.729-6.25-.911-.291,0-.589-.044-.881-.051A8.8,8.8,0,0,0,473.234,426.237Z" transform="translate(-171.702 -230.761)" opacity="0.1"/>
    <path id="Path_73" data-name="Path 73" d="M503.181,446.209a8.666,8.666,0,0,0,7.64-3.905,9.163,9.163,0,0,0,.749-8.724,7.064,7.064,0,0,0-1.847,1.822,30.15,30.15,0,0,1-1.9,3.024,7.812,7.812,0,0,1-6.193,2.186c-2.237-.095-4.262-.59-6.392-.729a8.778,8.778,0,0,0,7.941,6.325Z" transform="translate(-180.426 -236.225)" opacity="0.1"/>
    <path id="Path_74" data-name="Path 74" d="M500.34,472.1a8.643,8.643,0,0,0,11.319,4.064,9.057,9.057,0,0,0,4.626-11.351,8.474,8.474,0,0,0-1.918,1.756c-.831,1.035-1.42,2.186-2.344,3.185-1.79,1.8-4.673,2.543-7.245,2.609a37.344,37.344,0,0,1-4.439-.262Z" transform="translate(-181.904 -244.696)" opacity="0.1"/>
    <ellipse id="Ellipse_24" data-name="Ellipse 24" cx="70.997" cy="72.845" rx="70.997" ry="72.845" transform="translate(482.811 100.629)" fill="#3f3d56"/>
    <path id="Path_75" data-name="Path 75" d="M849.006,407.238c-2.472-2.536-8.417-6.362-11.364-7.79-3.4-1.676-4.652-1.647-7.06.138-2,1.458-3.3,2.864-5.6,2.347s-6.861-4.044-11.272-8.555-7.834-9.16-8.324-11.558.859-3.7,2.294-5.757c1.733-2.47,1.783-3.753.135-7.244-1.42-3.024-5.107-9.109-7.6-11.66s-3.033-1.99-4.4-1.458a25.21,25.21,0,0,0-4.027,2.186,12.346,12.346,0,0,0-4.83,5.24c-.973,2.128-2.074,6.078,3.587,16.419a91.442,91.442,0,0,0,15.7,21.476h0a89.635,89.635,0,0,0,21,16.134c10.071,5.83,13.928,4.671,16,3.68s3.452-2.4,5.1-4.955a25.991,25.991,0,0,0,2.131-4.132C850.945,410.35,851.5,409.781,849.006,407.238Z" transform="translate(-264.721 -214.976)" fill="#e5e5e5"/>
    <path id="Path_76" data-name="Path 76" d="M802.741,300.86c-39.236-.02-71.055,32.605-71.061,72.862s31.814,72.9,71.049,72.886c39.212,0,71.015-32.642,71-72.9C873.718,333.486,841.944,300.88,802.741,300.86Zm0,136c-34,0-61.558-28.278-61.558-63.16s27.56-63.16,61.558-63.16S864.3,338.815,864.3,373.7,836.739,436.858,802.741,436.858Z" transform="translate(-248.933 -200.223)" opacity="0.1"/>
    <ellipse id="Ellipse_25" data-name="Ellipse 25" cx="70.997" cy="72.845" rx="70.997" ry="72.845" transform="translate(319.7 211.274)" fill="#3f3d56"/>
    <path id="Path_77" data-name="Path 77" d="M625.7,522.382l-21.258,22.19a.4.4,0,0,0,0,.568l14.915,16.273a2.689,2.689,0,0,1,.551,2.866,2.527,2.527,0,0,1-4.181.858L600.89,548.923a.4.4,0,0,0-.568,0l-3.615,3.746a15.692,15.692,0,0,1-11.364,4.9,16.039,16.039,0,0,1-11.563-5.043l-3.473-3.644a.4.4,0,0,0-.568,0l-14.8,16.178a2.518,2.518,0,0,1-3.629,0,2.672,2.672,0,0,1,0-3.724L566.166,545.1a.446.446,0,0,0,0-.568l-21.258-22.19a.384.384,0,0,0-.427-.088.4.4,0,0,0-.241.372v44.4a6.42,6.42,0,0,0,6.314,6.479h69.513a6.42,6.42,0,0,0,6.314-6.479V522.667a.4.4,0,0,0-.243-.389A.384.384,0,0,0,625.7,522.382Z" transform="translate(-194.624 -260.271)" fill="#e5e5e5"/>
    <path id="Path_78" data-name="Path 78" d="M586.309,549.7a10.617,10.617,0,0,0,7.756-3.279l30.96-32.334a6.085,6.085,0,0,0-3.906-1.457H551.556a6.043,6.043,0,0,0-3.906,1.457l30.967,32.334A10.576,10.576,0,0,0,586.309,549.7Z" transform="translate(-195.612 -257.668)" fill="#e5e5e5"/>
    <path id="Path_79" data-name="Path 79" d="M571.831,452.69c-39.236-.02-71.055,32.605-71.061,72.862s31.814,72.9,71.049,72.886c39.212,0,71.015-32.642,71-72.9C642.808,485.316,611.034,452.71,571.831,452.69Zm0,136c-34,0-61.558-28.278-61.558-63.16s27.56-63.16,61.558-63.16,61.558,28.278,61.558,63.16S605.829,588.688,571.831,588.688Z" transform="translate(-182.028 -241.408)" opacity="0.1"/>
    <ellipse id="Ellipse_26" data-name="Ellipse 26" cx="70.997" cy="72.845" rx="70.997" ry="72.845" transform="translate(151.206 156.874)" fill="#3f3d56"/>
    <path id="Path_80" data-name="Path 80" d="M353.3,430.16l-28.3,67,2.642,2.711,25.669-11.616,25.669,11.616,2.642-2.711Z" transform="translate(-131.1 -235.297)" fill="#e5e5e5"/>
    <path id="Path_81" data-name="Path 81" d="M335.861,378c-39.231-.02-71.048,32.6-71.061,72.85s31.783,72.892,71.014,72.9,71.044-32.634,71.037-72.886c0-40.216-31.77-72.835-70.978-72.862Zm0,136c-34,0-61.564-28.285-61.558-63.172s27.568-63.155,61.57-63.148,61.566,28.309,61.546,63.2c0,34.872-27.556,63.149-61.551,63.153Z" transform="translate(-113.658 -221.148)" opacity="0.1"/>
    <path id="Path_82" data-name="Path 82" d="M827.1,592.1q-.966-2.419-1.982-4.824a14.413,14.413,0,0,0-2.422-4.292,4.44,4.44,0,0,0-1.421-1.093,5.924,5.924,0,0,0-1.854-.379,14.426,14.426,0,0,0-2.912-.08c-.376-.117-.8-.27-1.222-.444a10.352,10.352,0,0,0,7.557-9.656v-.445a10.258,10.258,0,0,0-10.078-10.428,9.759,9.759,0,0,0-5.292,1.552,9.426,9.426,0,0,0-10.654,5.269,12.205,12.205,0,0,0-3.622,8.963c0,.153,0,.313,0,.459.185,5.662,3.75,10.2,8.253,10.661a4.722,4.722,0,0,0-1.307.9c-1.378,1.363-1.605,3.527-1.754,5.495l-.107,1.458-2.387.874a.45.45,0,0,0-.288.364.457.457,0,0,0,.182.43l2.28,1.669v.415a1.863,1.863,0,0,0,.043.474,3.344,3.344,0,0,0-.881,1.29,6.108,6.108,0,0,0-.206,2.361l.085,2.033a16.352,16.352,0,0,0,.6,4.525c.3.9,1.591,3.083,2.521,3.1-.859,4.008-1.087,12.461-1.087,12.461-.106.109.192.211.71.3.511,4.023,2.181,15.3,5.142,20.266a43.676,43.676,0,0,1,1.115,4.926s.845,10.72,1.96,13.9c.952,2.711,1.7,9.4,1.911,11.339a1.1,1.1,0,0,0-.788.831c-.561,1.734-4.2,4.372-4.2,4.372a17.536,17.536,0,0,0-3.139,2.062c-1.144,1.057-1.1,2.011,3.977,1.414,9.8-1.159,11.478-4.372,11.478-4.372s-.156-.539-.391-1.239a13.637,13.637,0,0,0-1.286-3.112c-.142-.138-.284.095-.454.459a64.005,64.005,0,0,1-.668-14.072s.277-4.926-1.122-8.4a16.316,16.316,0,0,1,0-5.5c.561-2.317-2.237-13.62-2.237-13.62l-1.605-8.322a2.419,2.419,0,0,1,.448.969l.042.168.043.241a.456.456,0,0,0,.114.226c1.094,4.664,4.091,17.584,4.091,19.479,0,2.317,2.8,8.111,2.8,8.111s1.115,9.561,3.075,13.321c1.492,2.864,1.527,7.062,1.456,8.913h0s-.334,2.383-.9,2.959a7.086,7.086,0,0,0-1.058,1.887l-.064.138s-.838,1.742-.277,2.033a13.436,13.436,0,0,0,6.719.867s1.122-1.458,1.122-2.026a9.354,9.354,0,0,0-.128-1.035c-.206-1.37-.59-3.527-.6-3.549.234-.933-.71-3.527-.71-3.527l-.284-8.111a38.35,38.35,0,0,0-1.96-16.229s-1.421-5.21-1.115-6.661-.561-16.8-.561-16.8l-.085-.219a17.039,17.039,0,0,1,.085-3.258,44.35,44.35,0,0,0-1.122-11,9.774,9.774,0,0,1-.4-2.4c.064-.6.256-2.376.518-4.577a78.214,78.214,0,0,0,8.253-.729,1.016,1.016,0,0,0,.71-.292,1.04,1.04,0,0,0,.163-.59C830.267,600.38,828.712,596.139,827.1,592.1Zm-5.632,9.189c.291-2.077.6-4.088.916-5.582l.043.131a41.382,41.382,0,0,1,1.349,4.591A14.97,14.97,0,0,1,821.467,601.291Z" transform="translate(-266.757 -270.642)" fill="url(#linear-gradient)"/>
    <path id="Path_83" data-name="Path 83" d="M802.37,648.468s1.676,15.471,5.305,21.483a42.64,42.64,0,0,1,1.115,4.868s.838,10.6,1.953,13.744,1.953,11.747,1.953,11.747,3.906,4.576,5.305.86a61.9,61.9,0,0,1-.838-14.9s.277-4.868-1.115-8.308a15.937,15.937,0,0,1,0-5.436c.554-2.3-2.237-13.46-2.237-13.46l-2.23-11.172Z" transform="translate(-269.415 -294.361)" fill="#be6f72"/>
    <path id="Path_84" data-name="Path 84" d="M820.6,723.313s-1.676,3.148-11.442,4.292c-5.071.59-5.107-.35-3.963-1.4a17.63,17.63,0,0,1,3.125-2.04s3.629-2.573,4.183-4.292,2.514-.284,2.514-.284c2.791,4.292,3.352-1.151,3.907-.576a13.1,13.1,0,0,1,1.285,3.068C820.441,722.774,820.6,723.313,820.6,723.313Z" transform="translate(-270.056 -313.639)" fill="#ff6f61"/>
    <path id="Path_85" data-name="Path 85" d="M820.6,724.471s-1.676,3.148-11.442,4.292c-5.071.59-5.107-.35-3.963-1.4.8.517,2.4.729,5.632-.6,4.652-1.953,8.026-3.083,9.383-3.52C820.441,723.932,820.6,724.471,820.6,724.471Z" transform="translate(-270.056 -314.797)" opacity="0.1"/>
    <path id="Path_86" data-name="Path 86" d="M820.135,686.276s.277-4.868-1.115-8.308a15.932,15.932,0,0,1,0-5.437c.554-2.3-2.237-13.46-2.237-13.46l-2.23-11.172-1.932.117,2.209,11.055s2.791,11.164,2.237,13.46a15.938,15.938,0,0,0,0,5.436c1.421,3.44,1.115,8.308,1.115,8.308a61.891,61.891,0,0,0,.838,14.9,2.507,2.507,0,0,1-.81,1.181c1.037.481,2.131.459,2.763-1.181A61.894,61.894,0,0,1,820.135,686.276Z" transform="translate(-272.385 -294.36)" opacity="0.1"/>
    <path id="Path_87" data-name="Path 87" d="M812.668,562.42a9.757,9.757,0,0,0-5.27,1.538,9.41,9.41,0,0,0-10.654,5.21,12.018,12.018,0,0,0-3.615,8.862c0,6.092,4,11.026,8.928,11.026,3.551,0,6.662-2.594,8.09-6.347a9.562,9.562,0,0,0,2.514.335,10.315,10.315,0,0,0,0-20.623Z" transform="translate(-266.737 -271.173)" fill="#3f3d56"/>
    <path id="Path_88" data-name="Path 88" d="M827.668,650.65l.838,2.288s.838,15.18.554,16.615,1.122,6.559,1.122,6.559a37.552,37.552,0,0,1,1.953,16.032l.277,8.016s1.115,3.148.561,3.724-4.766-.51-4.766-.51.561-6.012-1.42-9.736-3.068-13.176-3.068-13.176-2.791-5.728-2.791-8.016-4.468-20.908-4.468-20.908Z" transform="translate(-273.498 -295.106)" fill="#be6f72"/>
    <path id="Path_89" data-name="Path 89" d="M801.571,643.549s.284-10.312,1.421-13.46a21.8,21.8,0,0,0,1.243-4.569s16.9,3.134,18.3,1.99c0,0,.277,4.008.561,4.292a42.2,42.2,0,0,1,1.115,10.887c-.305,3.44,0,3.432,0,3.432s-11.449,1.72-11.726,0-1.115-1.713-1.115-1.713S801.017,644.088,801.571,643.549Z" transform="translate(-269.178 -288.29)" fill="#3f3d56"/>
    <g id="Group_21" data-name="Group 21" transform="translate(532.393 339.22)" opacity="0.1">
      <path id="Path_90" data-name="Path 90" d="M810.792,650.04s-7.06-.2-9.191-.59v.59c-.554.568,9.773.86,9.773.86a.7.7,0,0,1,.384.16C811.381,650.04,810.792,650.04,810.792,650.04Z" transform="translate(-801.58 -634.001)"/>
      <path id="Path_91" data-name="Path 91" d="M827.486,632.542c-.284-.284-.561-4.292-.561-4.292a1.183,1.183,0,0,1-.476.175,14.831,14.831,0,0,0,.476,3.257,46.623,46.623,0,0,1,1.115,10.887c-.305,3.44,0,3.432,0,3.432s-9.056,1.363-11.25.452a3.531,3.531,0,0,0,.085.408c.277,1.72,11.726,0,11.726,0s-.284,0,0-3.432A43.635,43.635,0,0,0,827.486,632.542Z" transform="translate(-805.987 -628.25)"/>
      <path id="Path_92" data-name="Path 92" d="M810.792,650.04s-7.06-.2-9.191-.59v.59c-.554.568,9.773.86,9.773.86a.7.7,0,0,1,.384.16C811.381,650.04,810.792,650.04,810.792,650.04Z" transform="translate(-801.58 -634.001)"/>
      <path id="Path_93" data-name="Path 93" d="M827.486,632.542c-.284-.284-.561-4.292-.561-4.292a1.183,1.183,0,0,1-.476.175,14.831,14.831,0,0,0,.476,3.257,46.623,46.623,0,0,1,1.115,10.887c-.305,3.44,0,3.432,0,3.432s-9.056,1.363-11.25.452a3.531,3.531,0,0,0,.085.408c.277,1.72,11.726,0,11.726,0s-.284,0,0-3.432A43.635,43.635,0,0,0,827.486,632.542Z" transform="translate(-805.987 -628.25)"/>
    </g>
    <path id="Path_94" data-name="Path 94" d="M816.449,586.084a3.786,3.786,0,0,0,1.065,1.414,2.356,2.356,0,0,0,1,.445c-.625.372-1.307.649-1.932,1.02a34.458,34.458,0,0,0-2.841,2.186,5.7,5.7,0,0,1-3.26,1.3,4.185,4.185,0,0,0,.455-4.074,3.866,3.866,0,0,1-.5-1.414,2.535,2.535,0,0,1,1.371-1.895c.533-.372,1.079-.729,1.633-1.086.433-.277,1.087-.86,1.634-.838s.611.517.71,1.027A8.22,8.22,0,0,0,816.449,586.084Z" transform="translate(-271.754 -276.794)" fill="#be6f72"/>
    <path id="Path_95" data-name="Path 95" d="M816.449,586.084a3.786,3.786,0,0,0,1.065,1.414,2.356,2.356,0,0,0,1,.445c-.625.372-1.307.649-1.932,1.02a34.458,34.458,0,0,0-2.841,2.186,5.7,5.7,0,0,1-3.26,1.3,4.185,4.185,0,0,0,.455-4.074,3.866,3.866,0,0,1-.5-1.414,2.535,2.535,0,0,1,1.371-1.895c.533-.372,1.079-.729,1.633-1.086.433-.277,1.087-.86,1.634-.838s.611.517.71,1.027A8.22,8.22,0,0,0,816.449,586.084Z" transform="translate(-271.754 -276.794)" opacity="0.1"/>
    <ellipse id="Ellipse_27" data-name="Ellipse 27" cx="6.421" cy="6.588" rx="6.421" ry="6.588" transform="translate(544.816 313.014)" fill="#be6f72"/>
    <path id="Path_96" data-name="Path 96" d="M837.614,727.1c0,.576-1.115,2-1.115,2a13.5,13.5,0,0,1-6.7-.86c-.561-.284.277-2,.277-2l.064-.138a7,7,0,0,1,1.058-1.866c.554-.568.888-2.915.888-2.915,1.733-2.915,4.808,1.261,4.808,1.261s.391,2.186.6,3.513C837.564,726.572,837.614,726.958,837.614,727.1Z" transform="translate(-277.307 -313.997)" fill="#ff6f61"/>
    <path id="Path_97" data-name="Path 97" d="M837.614,729.26c0,.576-1.115,2-1.115,2a13.5,13.5,0,0,1-6.7-.86c-.561-.284.277-2,.277-2l.064-.138a13.2,13.2,0,0,0,6.08,1.283l1.271-1.3C837.564,728.728,837.614,729.115,837.614,729.26Z" transform="translate(-277.307 -316.153)" opacity="0.1"/>
    <ellipse id="Ellipse_28" data-name="Ellipse 28" cx="6.279" cy="6.442" rx="6.279" ry="6.442" transform="translate(532.117 299.409)" fill="#be6f72"/>
    <path id="Path_98" data-name="Path 98" d="M802.07,599.5c-1.378,1.348-1.605,3.484-1.747,5.429l-.213,2.849a14.745,14.745,0,0,0-.05,2.31c0,.474.114.955.156,1.458s.057,1.137.064,1.713v4.212a5.083,5.083,0,0,0,.455,2.529,1.657,1.657,0,0,0,2.131.787,2.5,2.5,0,0,0,.881-1.4,22.2,22.2,0,0,0,1.42-5.334c.057-.634.064-1.268.121-1.9s.163-1.3.256-1.938c.4-2.682.575-5.393.753-8.1.05-.8.753-3.957-.27-4.307-.5-.167-1.527.357-2,.532a5.6,5.6,0,0,0-1.953,1.159Z" transform="translate(-268.739 -280.764)" fill="#be6f72"/>
    <path id="Path_99" data-name="Path 99" d="M802.07,599.5c-1.378,1.348-1.605,3.484-1.747,5.429l-.213,2.849a14.745,14.745,0,0,0-.05,2.31c0,.474.114.955.156,1.458s.057,1.137.064,1.713v4.212a5.083,5.083,0,0,0,.455,2.529,1.657,1.657,0,0,0,2.131.787,2.5,2.5,0,0,0,.881-1.4,22.2,22.2,0,0,0,1.42-5.334c.057-.634.064-1.268.121-1.9s.163-1.3.256-1.938c.4-2.682.575-5.393.753-8.1.05-.8.753-3.957-.27-4.307-.5-.167-1.527.357-2,.532a5.6,5.6,0,0,0-1.953,1.159Z" transform="translate(-268.739 -280.764)" opacity="0.1"/>
    <path id="Path_100" data-name="Path 100" d="M816.374,588.16s-4.745,3.724-7.536,4.584c0,0-1.655,1.938-1.939,2.4s-.852,5.611-1.421,6.763-1.953,3.724,0,6.3a11.191,11.191,0,0,1,.277,3.44c-.277.86-1.293,4.008-.369,4.154s3.722,2.142,6.229,1.574,11.868,2.186,11.868,2.186,1.548-14.757,2.67-17.366l-2.514-.86s-6.975-4.292-2.791-10.88C820.841,590.456,816.921,589.6,816.374,588.16Z" transform="translate(-270.024 -278.156)" fill="#ff6f61"/>
    <path id="Path_101" data-name="Path 101" d="M796.767,611.139l5.767,4.19a.417.417,0,0,0,.5,0l1.562-1.2a.459.459,0,0,0,0-.685l-4.439-4.045a.418.418,0,0,0-.433-.087l-2.848,1.049a.442.442,0,0,0-.287.354A.45.45,0,0,0,796.767,611.139Z" transform="translate(-267.74 -283.885)" fill="#3f3d56"/>
    <path id="Path_102" data-name="Path 102" d="M799.274,624.953a16.243,16.243,0,0,1-.6-4.467l-.085-2.019a5.974,5.974,0,0,1,.206-2.332,3.746,3.746,0,0,1,2.394-2.15,8.064,8.064,0,0,1,3.26-.241.822.822,0,0,1,.419.117.807.807,0,0,1,.227.394,2.7,2.7,0,0,1,.128,2.106,2.162,2.162,0,0,1-.653.692c-.774.568-1.676.947-2.408,1.567a.892.892,0,0,0-.327.423,1.012,1.012,0,0,0,0,.459,7.463,7.463,0,0,0,.369,1.173,1.161,1.161,0,0,0,.32.5c.135.117.312.16.454.27.305.255.945.59.909.991-.107,1.458-.959,3.09-1.293,4.533C801.952,629.784,799.687,626.184,799.274,624.953Z" transform="translate(-268.309 -285.077)" fill="#be6f72"/>
    <g id="Group_22" data-name="Group 22" transform="translate(539.78 323.61)" opacity="0.1">
      <path id="Path_103" data-name="Path 103" d="M812.136,628.224h-.156a4.665,4.665,0,0,0,1.825,0h.178a6.231,6.231,0,0,0-1.847,0Z" transform="translate(-811.98 -612.615)"/>
      <path id="Path_104" data-name="Path 104" d="M831.712,606.83c-1,2.31-2.479,14.823-2.742,17.308.98.262,1.626.452,1.626.452s1.534-14.721,2.656-17.33Z" transform="translate(-816.903 -606.83)"/>
    </g>
    <path id="Path_105" data-name="Path 105" d="M823.636,598.686a2.19,2.19,0,0,0,.916,1.421,12.468,12.468,0,0,1,1.626,1.691,12.1,12.1,0,0,1,1.612,3.316,41.4,41.4,0,0,1,1.342,4.533c-3.551,1.691-7.586,1.611-11.364,2.725a9.027,9.027,0,0,0-4.262,2.587,6.124,6.124,0,0,0-1.57,4.744.631.631,0,0,0,.085.284.589.589,0,0,0,.5.2,4.192,4.192,0,0,0,2.607-.918,12.556,12.556,0,0,0,2-2.011,3.217,3.217,0,0,1,1.421-1.079,22.683,22.683,0,0,1,6.392-.641,78.549,78.549,0,0,0,9.525-.772.756.756,0,0,0,.633-.225.8.8,0,0,0,.219-.65c.312-4.3-1.243-8.5-2.841-12.483q-.959-2.4-1.974-4.773a14.227,14.227,0,0,0-2.415-4.241,4.271,4.271,0,0,0-1.42-1.078,5.872,5.872,0,0,0-1.9-.364,13.159,13.159,0,0,0-3.118-.058,6.977,6.977,0,0,0-.3,1.654,14.6,14.6,0,0,0,1.719,5.59C823.167,598.409,823.472,598.423,823.636,598.686Z" transform="translate(-272.179 -278.88)" fill="#be6f72"/>
    <path id="Path_106" data-name="Path 106" d="M812.12,606.67a5.451,5.451,0,0,0-.71,2.784,3.839,3.839,0,0,0,.178,1.137,3.634,3.634,0,0,0,2.266,2.186" transform="translate(-272.034 -283.176)" fill="none" stroke="#000" stroke-miterlimit="10" stroke-width="1" opacity="0.1"/>
    <path id="Path_107" data-name="Path 107" d="M812.256,572.966a3.187,3.187,0,0,0-1.03.168c-.93-1.457-3.118-2.463-5.682-2.463-3.395,0-6.144,1.8-6.144,4.015s2.749,4.008,6.144,4.008a8.457,8.457,0,0,0,3.686-.8,3.316,3.316,0,0,0,4,1.785,3.438,3.438,0,0,0,2.318-3.792,3.374,3.374,0,0,0-3.308-2.919Z" transform="translate(-268.555 -273.411)" fill="#3f3d56"/>
    <path id="Path_108" data-name="Path 108" d="M812.527,580a3.332,3.332,0,0,1-3.012-1.946,8.458,8.458,0,0,1-3.686.8c-3.388,0-6.137-1.793-6.137-4.008a2.483,2.483,0,0,1,0-.4,2.775,2.775,0,0,0-.313,1.261c0,2.186,2.749,4.008,6.144,4.008a8.456,8.456,0,0,0,3.686-.8,3.328,3.328,0,0,0,3.451,1.912,3.384,3.384,0,0,0,2.849-2.764A3.326,3.326,0,0,1,812.527,580Z" transform="translate(-268.549 -274.437)" opacity="0.1"/>
    <path id="Path_109" data-name="Path 109" d="M796.74,570.859a9.41,9.41,0,0,1,10.654-5.211,9.823,9.823,0,0,1,9.8-.432,10.312,10.312,0,0,1,5.484,8.346v-.86a10.35,10.35,0,0,0-5.161-8.982,9.824,9.824,0,0,0-10.16.238,9.41,9.41,0,0,0-10.654,5.21,12.018,12.018,0,0,0-3.615,8.862v.86A11.789,11.789,0,0,1,796.74,570.859Z" transform="translate(-266.725 -271.174)" opacity="0.1"/>
    <path id="Path_110" data-name="Path 110" d="M885.139,548.119c1.854-3.52-.249-7.841-2.67-10.982s-5.362-6.406-5.3-10.414c.085-5.75,6.037-9.146,10.8-12.2a52.755,52.755,0,0,0,9.688-8.016,14.5,14.5,0,0,0,2.983-4.088c.98-2.252.952-4.81.895-7.287q-.312-12.316-1.186-24.6" transform="translate(-291.088 -246.248)" fill="none" stroke="#3f3d56" stroke-miterlimit="10" stroke-width="4"/>
    <path id="Path_111" data-name="Path 111" d="M915.39,466.747a8.99,8.99,0,0,0-4.361-7.346l-1.96,3.972.057-4.81a8.374,8.374,0,0,0-2.876-.357,8.973,8.973,0,1,0,9.141,8.541Z" transform="translate(-297.098 -242.902)" fill="#e5e5e5"/>
    <path id="Path_112" data-name="Path 112" d="M893.831,548.394a8.664,8.664,0,0,1-10.084,4.551,9.02,9.02,0,0,1,1.016-17.525,8.719,8.719,0,0,1,9.487,5.745l-5.462,4.562,6.009-1.458a9.108,9.108,0,0,1-.966,4.125Z" transform="translate(-291.129 -263.822)" fill="#e5e5e5"/>
    <path id="Path_113" data-name="Path 113" d="M890.752,522.676a8.8,8.8,0,0,1-9.051-7.527,8.979,8.979,0,0,1,6.274-10.072l-.043,3.695,1.982-4.015h0a8.841,8.841,0,0,1,9.141,8.548,9.1,9.1,0,0,1-2.267,6.46,8.648,8.648,0,0,1-6.057,2.919Z" transform="translate(-292.368 -255.529)" fill="#e5e5e5"/>
    <path id="Path_114" data-name="Path 114" d="M920.622,502.8a8.733,8.733,0,0,1-8.546-5.586,9.129,9.129,0,0,1,2.336-10.117,8.569,8.569,0,0,1,10.081-1.058l-1.548,4.372,3.182-3.134a9.016,9.016,0,0,1,2.841,6.194,8.89,8.89,0,0,1-8.346,9.328Z" transform="translate(-301.016 -250.136)" fill="#e5e5e5"/>
    <path id="Path_115" data-name="Path 115" d="M914.215,470.967c-2.017.233-3.985.874-6.009,1.006s-4.261-.372-5.533-1.989a28.072,28.072,0,0,1-1.612-2.915,6.356,6.356,0,0,0-2.2-2.128,9.162,9.162,0,0,0,.889,9.6,8.624,8.624,0,0,0,8.856,3.227,8.865,8.865,0,0,0,6.591-6.873C914.868,470.908,914.541,470.93,914.215,470.967Z" transform="translate(-297.095 -244.731)" opacity="0.1"/>
    <path id="Path_116" data-name="Path 116" d="M920.636,504.707a8.683,8.683,0,0,1-7.682-3.988,9.178,9.178,0,0,1-.635-8.809,6.553,6.553,0,0,1,1.762,1.8,28.917,28.917,0,0,0,1.733,2.966c1.357,1.647,3.686,2.186,5.8,2.084s4.148-.729,6.25-.911c.291,0,.59-.051.881-.058A8.806,8.806,0,0,1,920.636,504.707Z" transform="translate(-301.03 -252.047)" opacity="0.1"/>
    <path id="Path_117" data-name="Path 117" d="M890.752,524.644a8.666,8.666,0,0,1-7.649-3.909,9.163,9.163,0,0,1-.739-8.735,7.293,7.293,0,0,1,1.847,1.822c.71.984,1.1,2.121,1.9,3.024,1.477,1.691,3.956,2.281,6.193,2.23s4.261-.6,6.392-.765a8.786,8.786,0,0,1-7.941,6.333Z" transform="translate(-292.368 -257.497)" opacity="0.1"/>
    <path id="Path_118" data-name="Path 118" d="M893.851,550.547a8.647,8.647,0,0,1-11.278,3.969,9.062,9.062,0,0,1-4.668-11.256,8.644,8.644,0,0,1,1.918,1.756c.838,1.042,1.385,2.186,2.344,3.192,1.79,1.8,4.674,2.536,7.245,2.609a37.362,37.362,0,0,0,4.439-.27Z" transform="translate(-291.149 -265.976)" opacity="0.1"/>
    <path id="Path_119" data-name="Path 119" d="M1044.139,700.119c1.854-3.52-.249-7.841-2.671-10.982s-5.362-6.406-5.3-10.414c.085-5.75,6.037-9.146,10.8-12.2a52.75,52.75,0,0,0,9.688-8.016,14.5,14.5,0,0,0,2.983-4.088c.98-2.252.952-4.81.9-7.287q-.305-12.316-1.186-24.6" transform="translate(-337.157 -287.479)" fill="none" stroke="#3f3d56" stroke-miterlimit="10" stroke-width="4"/>
    <path id="Path_120" data-name="Path 120" d="M1074.4,618.747a8.99,8.99,0,0,0-4.361-7.346l-1.96,3.972.057-4.81a8.376,8.376,0,0,0-2.841-.357,8.973,8.973,0,1,0,9.141,8.541Z" transform="translate(-343.182 -284.133)" fill="#e5e5e5"/>
    <path id="Path_121" data-name="Path 121" d="M1052.831,700.394a8.664,8.664,0,0,1-10.084,4.551,9.02,9.02,0,0,1,1.016-17.525,8.72,8.72,0,0,1,9.487,5.745l-5.462,4.562,6.009-1.458A9.105,9.105,0,0,1,1052.831,700.394Z" transform="translate(-337.199 -305.054)" fill="#e5e5e5"/>
    <path id="Path_122" data-name="Path 122" d="M1049.751,674.676a8.8,8.8,0,0,1-9.051-7.527,8.979,8.979,0,0,1,6.274-10.072l-.043,3.695,1.982-4.015h0a8.841,8.841,0,0,1,9.141,8.548,9.1,9.1,0,0,1-2.267,6.46,8.647,8.647,0,0,1-6.057,2.919Z" transform="translate(-338.437 -296.76)" fill="#e5e5e5"/>
    <path id="Path_123" data-name="Path 123" d="M1079.622,654.8a8.733,8.733,0,0,1-8.546-5.586,9.129,9.129,0,0,1,2.336-10.117,8.569,8.569,0,0,1,10.081-1.058l-1.548,4.372,3.182-3.134a9.016,9.016,0,0,1,2.841,6.194,8.891,8.891,0,0,1-8.345,9.328Z" transform="translate(-347.085 -291.367)" fill="#e5e5e5"/>
    <path id="Path_124" data-name="Path 124" d="M1073.215,622.967c-2.017.233-3.984.875-6.009,1.006s-4.262-.372-5.533-1.99a28.073,28.073,0,0,1-1.612-2.915,6.356,6.356,0,0,0-2.2-2.128,9.163,9.163,0,0,0,.889,9.6,8.624,8.624,0,0,0,8.855,3.227,8.864,8.864,0,0,0,6.591-6.873C1073.868,622.908,1073.541,622.93,1073.215,622.967Z" transform="translate(-343.164 -285.962)" opacity="0.1"/>
    <path id="Path_125" data-name="Path 125" d="M1079.636,656.707a8.683,8.683,0,0,1-7.682-3.988,9.179,9.179,0,0,1-.635-8.809,6.558,6.558,0,0,1,1.761,1.8,28.96,28.96,0,0,0,1.733,2.966c1.357,1.647,3.686,2.186,5.8,2.084s4.148-.729,6.25-.911c.291,0,.59-.051.881-.058A8.806,8.806,0,0,1,1079.636,656.707Z" transform="translate(-347.1 -293.278)" opacity="0.1"/>
    <path id="Path_126" data-name="Path 126" d="M1049.752,676.644a8.665,8.665,0,0,1-7.649-3.909,9.162,9.162,0,0,1-.739-8.734,7.292,7.292,0,0,1,1.846,1.822c.711.984,1.1,2.121,1.9,3.024,1.477,1.691,3.956,2.281,6.193,2.23s4.261-.6,6.393-.765A8.786,8.786,0,0,1,1049.752,676.644Z" transform="translate(-338.438 -298.728)" opacity="0.1"/>
    <path id="Path_127" data-name="Path 127" d="M1052.851,702.547a8.646,8.646,0,0,1-11.277,3.969,9.063,9.063,0,0,1-4.668-11.256,8.642,8.642,0,0,1,1.918,1.756c.838,1.042,1.421,2.186,2.344,3.192,1.79,1.8,4.673,2.536,7.245,2.609A37.355,37.355,0,0,0,1052.851,702.547Z" transform="translate(-337.219 -307.207)" opacity="0.1"/>
    <path id="Path_128" data-name="Path 128" d="M491.152,580.293a7.215,7.215,0,0,0-2.777-5.772,8.319,8.319,0,0,0-6.826-8.22,8.3,8.3,0,0,0-5.433-6.231h0a6.773,6.773,0,0,0-1.009-.241h-1.2a8.072,8.072,0,0,0-7.728,7.01c-2.493-.59-4.773.175-5.192,1.793a2.239,2.239,0,0,0,.071,1.3,5.535,5.535,0,0,0,3.665,3.046l.242.073.362.095h.078a6.583,6.583,0,0,0-.6,2.762,6.393,6.393,0,0,0,3.345,5.684l-.163.1a2.273,2.273,0,0,0-.54.772,11.723,11.723,0,0,0-1.044,2.58c-.178.772-.206,1.574-.426,2.339-.412,1.406-1.463,2.594-1.584,4.059-.057.656.05,1.458-.4,1.88a2.219,2.219,0,0,1-.362.262,2.978,2.978,0,0,0-.788.853,2.831,2.831,0,0,1-.554.816c-.412.313-1.087.284-1.285.772s.32,1.064.2,1.6-.561.634-.881.933a3.27,3.27,0,0,0-.76,1.457,4.573,4.573,0,0,1-3.835-1.006,7.5,7.5,0,0,1,.4,1.457,6.161,6.161,0,0,0-2.067-1.064,6.542,6.542,0,0,1-2.2-1.676l1.179-.168-5.206-8.155-1.541-.328,1.378,2.718a.862.862,0,0,0-.469.576,2.533,2.533,0,0,0-.05.925,16.967,16.967,0,0,0,.355,2.186l.4,1.909c.036.175.078.357.128.532a4.774,4.774,0,0,0-1.541.175,13.131,13.131,0,0,0-3.2-.78,1.733,1.733,0,0,0-.71,0,1.849,1.849,0,0,0-.675.561,22.408,22.408,0,0,0-2.379,3.44c-2.841,5-6.541,9.364-10.043,13.883-2.415,1.006-4.851,1.96-7.287,2.915l-5.242,2.055a7.777,7.777,0,0,1-3.253.729c-.5,0-1.115-.109-1.421.328a3.108,3.108,0,0,0-.32.729l-.54.058h0a6.423,6.423,0,0,0-1.257-2.376.8.8,0,0,0-.59.466c-.128.24-.206.5-.355.729-.277.423-.767.627-1.115.984s-.568.911-.952,1.275a3.711,3.711,0,0,1-1.783.729,11.077,11.077,0,0,0-2.791,1.086,4.445,4.445,0,0,1-1.03.488,3.774,3.774,0,0,1-1.215.044l-2.77-.211a2.134,2.134,0,0,0-.746.036,1.461,1.461,0,0,0-.881,1.458,2.308,2.308,0,0,0,.881,1.567,5.587,5.587,0,0,0,1.577.838,45.4,45.4,0,0,0,7.387,2.245v.576a12.347,12.347,0,0,0,5.682,1.385.863.863,0,0,0,.426-.08.965.965,0,0,0,.355-.568,23.98,23.98,0,0,0,1.108-5.582h0a2.785,2.785,0,0,0,1-.262c.952-.27,1.9.4,2.891.51,1.215.139,2.337-.59,3.487-1.035l.5-.168a5.517,5.517,0,0,1-1.151,1.13c-.476.35-1.009.612-1.47.977a10.152,10.152,0,0,1-1.25.991,7.713,7.713,0,0,1-.959.379,6.272,6.272,0,0,0-1.371.729,2.812,2.812,0,0,0-.93.933,1.431,1.431,0,0,0-.078,1.312,1.351,1.351,0,0,0,.916.656,3.661,3.661,0,0,0,1.129,0c1.506-.117,3-.255,4.5-.393a11.721,11.721,0,0,0,1.882-.277c.327-.08.653-.189.98-.284a8.539,8.539,0,0,1,1.712-.262,1.388,1.388,0,0,1,.5.051c.348.117.6.481.952.554a1.387,1.387,0,0,0,.71-.095,15.461,15.461,0,0,1,3.331-.364,1.361,1.361,0,0,0,1.293-.59c.227-.466-.185-1.217-.369-1.836a5.76,5.76,0,0,1-.156-1.21,7.721,7.721,0,0,0-.824-2.871,7.579,7.579,0,0,1-.618-1.312,32,32,0,0,0,6.13-3.192,10.845,10.845,0,0,1,3.495-1.727,9.279,9.279,0,0,1,4.389.525,98.167,98.167,0,0,1,10.064,3.6c1.57.663,3.132,1.363,4.752,1.866a7.5,7.5,0,0,0,1.69,1.683,7.662,7.662,0,0,0,3.658,1.028,46.7,46.7,0,0,0,5.149.2,8.494,8.494,0,0,0,3.835-.729,3.934,3.934,0,0,0,.8-.547,3.137,3.137,0,0,0,2.529-.955,6.311,6.311,0,0,0,1.925-3.119c.419-1.662.1-3.644,1.094-4.97.263-.364.611-.656.874-1.02a2.928,2.928,0,0,0,.455-1.683.339.339,0,0,1,.043-.066,6.3,6.3,0,0,0,.426-1.676,9.755,9.755,0,0,1,.462-1.326q.757-1.928,1.321-3.928a23.451,23.451,0,0,0,.611-2.7c.107-.729.171-1.457.227-2.186a13.89,13.89,0,0,1,.646-3.374,28.094,28.094,0,0,0,1.492-8.075v-.16a5.371,5.371,0,0,0,4.673-5.509,5.876,5.876,0,0,0-.49-2.354,7.434,7.434,0,0,0,.952-3.673Zm-25.413,31.678c.078.284.17.561.263.838-.419-.415-.824-.845-1.243-1.268.163.058.334.109.49.175a2.619,2.619,0,0,1,.469.255Zm-2.01-1.4c-2.458-2.186-5.3-3.884-7.813-6,1.371.692,2.706,1.5,4.027,2.274q2.351,1.377,4.766,2.645a3.959,3.959,0,0,1-1,1.086Zm1.044-5.509.121-.124v.867l-.661-.233a5.957,5.957,0,0,0,.518-.51Zm-21.613,5.9a20.879,20.879,0,0,0,2.614-3.826c.973,1.742,2.557,3,3.9,4.467C447.507,611.323,445.334,611.082,443.16,610.966Z" transform="translate(-151.65 -270.471)" fill="url(#linear-gradient-2)"/>
    <path id="Path_129" data-name="Path 129" d="M415.35,438.25l1.548.321,5.277,8.009-2.323.321Z" transform="translate(-120.345 -118.976)" fill="#2f2e41"/>
    <path id="Path_130" data-name="Path 130" d="M414.49,645.43a31.679,31.679,0,0,0,1.548,4.132,37.622,37.622,0,0,0,5.149-1.508,16.6,16.6,0,0,0-1.072-1.458,5.316,5.316,0,0,0-1.456-1.144,3.907,3.907,0,0,0-1.769,0C416.1,645.43,415.293,645.445,414.49,645.43Z" transform="translate(-157.029 -293.669)" fill="#fbbebe"/>
    <path id="Path_131" data-name="Path 131" d="M413.254,646.711a3.268,3.268,0,0,1-1.761-2.055,6.667,6.667,0,0,0-1.342-2.456.77.77,0,0,0-.6.459c-.128.233-.206.5-.348.729-.284.416-.781.62-1.136.969s-.568.9-.952,1.253a3.723,3.723,0,0,1-1.8.729,11.463,11.463,0,0,0-2.841,1.071,4.837,4.837,0,0,1-1.044.481,4.026,4.026,0,0,1-1.222,0l-2.8-.2a2.134,2.134,0,0,0-.71,0,1.4,1.4,0,0,0-.888,1.457,2.2,2.2,0,0,0,.888,1.545,5.84,5.84,0,0,0,1.591.831,45.9,45.9,0,0,0,7.5,2.186v.568a12.71,12.71,0,0,0,5.718,1.363.942.942,0,0,0,.426-.073.965.965,0,0,0,.355-.568,23.262,23.262,0,0,0,1.172-6.238,5.1,5.1,0,0,0-.121-1.611c-.156-.517.369-.3-.114-.5" transform="translate(-151.617 -292.814)" fill="#2f2e41"/>
    <path id="Path_132" data-name="Path 132" d="M473.458,632.694c-8.3.51-16.492-1.982-24.8-2.245a11.807,11.807,0,0,0-3.083.2,15.294,15.294,0,0,0-3.054,1.217c-4.453,2.128-9.063,3.892-13.665,5.648l-5.291,2.019a7.84,7.84,0,0,1-3.274.729c-.5,0-1.122-.109-1.42.321-.859,1.312-.455,3.228.114,4.7.185.474.5.991.994,1.042a2.831,2.831,0,0,0,1.009-.262c.959-.262,1.918.4,2.912.51,1.222.131,2.358-.583,3.516-1.02,1.918-.729,4.006-.729,6.023-1.049a26.614,26.614,0,0,0,9.432-4.015,10.886,10.886,0,0,1,3.516-1.705,9.5,9.5,0,0,1,4.425.517,99.844,99.844,0,0,1,10.15,3.542,46.522,46.522,0,0,0,5.3,1.99,18.72,18.72,0,0,0,11.883-.729c1.328-.539,2.77-1.458,2.841-2.959a4.489,4.489,0,0,0-1.009-2.3c-.27-.459-.547-.918-.838-1.363C477.713,635.369,475.98,632.541,473.458,632.694Z" transform="translate(-158.154 -289.62)" fill="#2f2e41"/>
    <path id="Path_133" data-name="Path 133" d="M473.458,632.694c-8.3.51-16.492-1.982-24.8-2.245a11.807,11.807,0,0,0-3.083.2,15.294,15.294,0,0,0-3.054,1.217c-4.453,2.128-9.063,3.892-13.665,5.648l-5.291,2.019a7.84,7.84,0,0,1-3.274.729c-.5,0-1.122-.109-1.42.321-.859,1.312-.455,3.228.114,4.7.185.474.5.991.994,1.042a2.831,2.831,0,0,0,1.009-.262c.959-.262,1.918.4,2.912.51,1.222.131,2.358-.583,3.516-1.02,1.918-.729,4.006-.729,6.023-1.049a26.614,26.614,0,0,0,9.432-4.015,10.886,10.886,0,0,1,3.516-1.705,9.5,9.5,0,0,1,4.425.517,99.844,99.844,0,0,1,10.15,3.542,46.522,46.522,0,0,0,5.3,1.99,18.72,18.72,0,0,0,11.883-.729c1.328-.539,2.77-1.458,2.841-2.959a4.489,4.489,0,0,0-1.009-2.3c-.27-.459-.547-.918-.838-1.363C477.713,635.369,475.98,632.541,473.458,632.694Z" transform="translate(-158.154 -289.62)" opacity="0.1"/>
    <path id="Path_134" data-name="Path 134" d="M436.92,644.681q1.946.678,3.928,1.253c.71-1.246,2.131-2.113,2.436-3.542a.246.246,0,0,0-.149-.328,7.3,7.3,0,0,0-3.082-.926c-.852-.051-1.243.86-1.627,1.5C438.277,642.925,437.268,644.819,436.92,644.681Z" transform="translate(-163.528 -292.526)" fill="#fbbebe"/>
    <path id="Path_135" data-name="Path 135" d="M434.247,644.027a2.837,2.837,0,0,1-1.911-1.29c-.178-.328-.376-.772-.746-.729s-.49.437-.568.78a22.3,22.3,0,0,1-1.072,3.782,7.082,7.082,0,0,1-2.294,3.1c-.483.342-1.016.6-1.492.962a10.284,10.284,0,0,1-1.257.977,7.352,7.352,0,0,1-.966.364,6.629,6.629,0,0,0-1.378.729,2.767,2.767,0,0,0-.945.925,1.363,1.363,0,0,0-.071,1.29,1.342,1.342,0,0,0,.916.641,3.765,3.765,0,0,0,1.144,0c1.513-.109,3.026-.248,4.539-.386a12.78,12.78,0,0,0,1.9-.27l.987-.277a7.672,7.672,0,0,1,1.726-.262,1.308,1.308,0,0,1,.5.051c.348.117.6.474.959.547a1.568,1.568,0,0,0,.71-.095,15.292,15.292,0,0,1,3.36-.357,1.4,1.4,0,0,0,1.307-.583c.284-.568-.185-1.2-.376-1.815a5.975,5.975,0,0,1-.156-1.188,7.382,7.382,0,0,0-.831-2.828c-.384-.729-.909-1.53-.639-2.3a2.227,2.227,0,0,0,.256-.794C437.741,643.743,434.943,644.188,434.247,644.027Z" transform="translate(-159.037 -292.762)" fill="#2f2e41"/>
    <path id="Path_136" data-name="Path 136" d="M475.569,612.014a6.563,6.563,0,0,1-3.31-3.367c-.135-.321-.249-.663-.384-.984a7.475,7.475,0,0,0-1.975-2.82.961.961,0,0,0-.71-.313.787.787,0,0,0-.533.59,2.309,2.309,0,0,0-.057.911,16.628,16.628,0,0,0,.355,2.128l.4,1.88a4.206,4.206,0,0,0,.249.838,2.9,2.9,0,0,0,.675.824c.369.35.746.685,1.122,1.02a3.852,3.852,0,0,0,.71.5,4.049,4.049,0,0,0,1.257.379,10.538,10.538,0,0,1,4.716,1.866s0-1.261,0-1.4a1.882,1.882,0,0,0-.355-1.013A6.228,6.228,0,0,0,475.569,612.014Z" transform="translate(-172.701 -282.596)" fill="#fbbebe"/>
    <path id="Path_137" data-name="Path 137" d="M475.569,612.014a6.563,6.563,0,0,1-3.31-3.367c-.135-.321-.249-.663-.384-.984a7.475,7.475,0,0,0-1.975-2.82.961.961,0,0,0-.71-.313.787.787,0,0,0-.533.59,2.309,2.309,0,0,0-.057.911,16.628,16.628,0,0,0,.355,2.128l.4,1.88a4.206,4.206,0,0,0,.249.838,2.9,2.9,0,0,0,.675.824c.369.35.746.685,1.122,1.02a3.852,3.852,0,0,0,.71.5,4.049,4.049,0,0,0,1.257.379,10.538,10.538,0,0,1,4.716,1.866s0-1.261,0-1.4a1.882,1.882,0,0,0-.355-1.013A6.228,6.228,0,0,0,475.569,612.014Z" transform="translate(-172.701 -282.596)" opacity="0.1"/>
    <ellipse id="Ellipse_29" data-name="Ellipse 29" cx="2.017" cy="2.084" rx="2.017" ry="2.084" transform="translate(317.74 310.864)" fill="#2f2e41"/>
    <path id="Path_138" data-name="Path 138" d="M494.747,590.457a2.132,2.132,0,0,0-1.591.233,2.265,2.265,0,0,0-.547.765,11.276,11.276,0,0,0-1.051,2.536c-.178.729-.206,1.552-.433,2.3-.412,1.385-1.47,2.558-1.591,4-.057.649.05,1.406-.412,1.844a2.622,2.622,0,0,1-.362.27,2.768,2.768,0,0,0-.8.838,2.743,2.743,0,0,1-.561.794c-.412.313-1.094.284-1.293.729s.32,1.049.2,1.574-.568.627-.888.918a3.209,3.209,0,0,0-.767,1.458,4.649,4.649,0,0,1-3.864-.984,12.927,12.927,0,0,1,.6,4.533,1.887,1.887,0,0,1-.355,1.4,24.031,24.031,0,0,1,4.737.845,3.19,3.19,0,0,0,2.067,0,3.468,3.468,0,0,0,.952-.773,6.244,6.244,0,0,0,1.953-3.09,18.608,18.608,0,0,0,.035-2.091,12.064,12.064,0,0,1,.518-2.543,30.971,30.971,0,0,0,.9-5.232c.092-1.093,1.016-1.968,1.5-2.915a14.527,14.527,0,0,0,1.911-5.83C495.641,591.368,495.414,590.53,494.747,590.457Z" transform="translate(-176.239 -278.762)" fill="#2f2e41"/>
    <path id="Path_139" data-name="Path 139" d="M494.747,590.457a2.132,2.132,0,0,0-1.591.233,2.265,2.265,0,0,0-.547.765,11.276,11.276,0,0,0-1.051,2.536c-.178.729-.206,1.552-.433,2.3-.412,1.385-1.47,2.558-1.591,4-.057.649.05,1.406-.412,1.844a2.622,2.622,0,0,1-.362.27,2.768,2.768,0,0,0-.8.838,2.743,2.743,0,0,1-.561.794c-.412.313-1.094.284-1.293.729s.32,1.049.2,1.574-.568.627-.888.918a3.209,3.209,0,0,0-.767,1.458,4.649,4.649,0,0,1-3.864-.984,12.927,12.927,0,0,1,.6,4.533,1.887,1.887,0,0,1-.355,1.4,24.031,24.031,0,0,1,4.737.845,3.19,3.19,0,0,0,2.067,0,3.468,3.468,0,0,0,.952-.773,6.244,6.244,0,0,0,1.953-3.09,18.608,18.608,0,0,0,.035-2.091,12.064,12.064,0,0,1,.518-2.543,30.971,30.971,0,0,0,.9-5.232c.092-1.093,1.016-1.968,1.5-2.915a14.527,14.527,0,0,0,1.911-5.83C495.641,591.368,495.414,590.53,494.747,590.457Z" transform="translate(-176.239 -278.762)" opacity="0.1"/>
    <path id="Path_140" data-name="Path 140" d="M480.881,629.474c-1.726-.845-2.99-2.412-4.389-3.76-2.663-2.572-5.924-4.372-8.729-6.8a61.9,61.9,0,0,0-5.561-4.8,13.671,13.671,0,0,0-5.959-2.135,1.545,1.545,0,0,0-.71,0,1.641,1.641,0,0,0-.675.547,22,22,0,0,0-2.408,3.389c-3.551,6.194-8.6,11.4-12.785,17.155a1.1,1.1,0,0,0-.206.408,1.034,1.034,0,0,0,.156.634l.852,1.705c.476.962,1.243,2.077,2.266,1.888a2.474,2.474,0,0,0,1.186-.78l3.821-3.753,4.006-3.928a31.335,31.335,0,0,0,6.264-7.593c1.193,2.128,3.317,3.52,4.766,5.466.554.729,1.009,1.552,1.506,2.339.788,1.253,1.69,2.434,2.585,3.644l4.6,6.012a8.91,8.91,0,0,0,2.131,2.186,7.973,7.973,0,0,0,3.686,1.013,47.452,47.452,0,0,0,5.192.19,8.752,8.752,0,0,0,3.871-.729,3.6,3.6,0,0,0,2.1-3.2,4.776,4.776,0,0,0-.661-1.989A16.043,16.043,0,0,0,480.881,629.474Z" transform="translate(-164.263 -284.607)" fill="#2f2e41"/>
    <ellipse id="Ellipse_30" data-name="Ellipse 30" cx="1.555" cy="1.603" rx="1.555" ry="1.603" transform="translate(319.445 312.788)" fill="#e8e8f0"/>
    <path id="Path_141" data-name="Path 141" d="M502.6,590.666a3.141,3.141,0,0,1,.171,2.3,9.445,9.445,0,0,1-1,2.121,10.1,10.1,0,0,1-1.3,1.895,13.129,13.129,0,0,0,6.833-2.011,10.005,10.005,0,0,0,4.311-3.855,1.947,1.947,0,0,1-1.591-.306,5.74,5.74,0,0,1-1.215-1.159l-1.2-1.385a5.542,5.542,0,0,1-.71-1,2.816,2.816,0,0,1-.32-1.611,9.2,9.2,0,0,1-1.591,1.355c-.859.576-1.8.991-2.671,1.56-.3.2-.98.525-.8.933S502.359,590.229,502.6,590.666Z" transform="translate(-181.942 -277.477)" fill="#fbbebe"/>
    <path id="Path_142" data-name="Path 142" d="M502.6,590.666a3.141,3.141,0,0,1,.171,2.3,9.445,9.445,0,0,1-1,2.121,10.1,10.1,0,0,1-1.3,1.895,13.129,13.129,0,0,0,6.833-2.011,10.005,10.005,0,0,0,4.311-3.855,1.947,1.947,0,0,1-1.591-.306,5.74,5.74,0,0,1-1.215-1.159l-1.2-1.385a5.542,5.542,0,0,1-.71-1,2.816,2.816,0,0,1-.32-1.611,9.2,9.2,0,0,1-1.591,1.355c-.859.576-1.8.991-2.671,1.56-.3.2-.98.525-.8.933S502.359,590.229,502.6,590.666Z" transform="translate(-181.942 -277.477)" opacity="0.1"/>
    <path id="Path_143" data-name="Path 143" d="M499.654,592.764a2.121,2.121,0,0,0,0,2.4c.071.088.327.634.433.641a.387.387,0,0,0,.27-.146,18.162,18.162,0,0,0,1.52-1.858,3.374,3.374,0,0,1,1.932-1.3,4.1,4.1,0,0,1,2.663.853,2.539,2.539,0,0,1,.916.729,2.592,2.592,0,0,1,.3,1.042,51.5,51.5,0,0,1,.27,6.624,26.784,26.784,0,0,1-.305,4.773c-.156.809-.384,1.6-.49,2.427a15.9,15.9,0,0,0-.1,2.186v3.046a8.224,8.224,0,0,0,.114,1.669c.142.663.447,1.283.653,1.931a12.923,12.923,0,0,1,.433,2.281l.4,3.148a4.072,4.072,0,0,1-.362,2.915c-.263.357-.611.649-.881,1.006-1,1.341-.71,3.257-1.1,4.9a6.123,6.123,0,0,1-1.946,3.061,3.17,3.17,0,0,1-2.564.94c-1.25-.24-2-1.574-2.337-2.835a11.539,11.539,0,0,0-1.2-3.695,9.616,9.616,0,0,0-2.372-2.033A4.192,4.192,0,0,1,494.05,625c-.078-.459,0-.933-.078-1.4a3.291,3.291,0,0,0-1.982-2.674c-.639-.255-1.421-.35-1.79-.947a4.414,4.414,0,0,0,1.868-2.572,13.531,13.531,0,0,0,.455-3.25l.213-3.644a12.451,12.451,0,0,1,.845-4.73c.313-.656.71-1.275,1.03-1.924a21.2,21.2,0,0,0,1.1-2.82c.511-1.5,1.023-3,1.477-4.518a8.65,8.65,0,0,1,.81-2.106C498.382,593.733,498.936,592.91,499.654,592.764Z" transform="translate(-178.966 -279.334)" fill="#e8e8f0"/>
    <path id="Path_144" data-name="Path 144" d="M492.319,616.3h.945l.2-1.458a3.1,3.1,0,0,1,.2-.853,5.1,5.1,0,0,1,.547-.816c.923-1.348.859-3.134,1.087-4.773a24.719,24.719,0,0,1,2.074-6.238l1.832-4.19a5.882,5.882,0,0,0,.4-1.071,6.586,6.586,0,0,0,.114-1.239c0-.649.2-3.01.22-3.644,0-.241-.518-.109-.625-.321-.227-.466-.54.794-.973,1.071a2.451,2.451,0,0,0-.845,1.268c-.4,1.049-.639,2.186-1.009,3.228a6.625,6.625,0,0,1-1.712,2.857c-.376.335-.81.6-1.165.969-1.136,1.151-1.25,2.981-1.286,4.628C492.29,606.729,492.106,616.3,492.319,616.3Z" transform="translate(-179.55 -279.089)" fill="#2f2e41"/>
    <path id="Path_145" data-name="Path 145" d="M507.985,590.433A3.3,3.3,0,0,0,506.3,592.8a12.213,12.213,0,0,1-.852,2.915c-1.151,2.055-4.084,2.653-4.9,4.875a9.182,9.182,0,0,0-.327,2.3c-.142,1.6-.653,3.134-.81,4.722a21.588,21.588,0,0,0,.085,3.709l1.03,12.549a17.187,17.187,0,0,1-.305,5.524,5.07,5.07,0,0,0,3.083-.525c.959-.452,1.84-1.071,2.77-1.6a28.345,28.345,0,0,0,4.752-2.74,2.956,2.956,0,0,0,.639-.729,6.434,6.434,0,0,0,.426-1.647,9.047,9.047,0,0,1,.462-1.3,38.875,38.875,0,0,0,1.335-3.877,22.72,22.72,0,0,0,.611-2.653c.114-.729.178-1.458.234-2.186a13.113,13.113,0,0,1,.653-3.316,27.322,27.322,0,0,0,1.5-7.958,4.266,4.266,0,0,0-.078-1.166,6.314,6.314,0,0,0-.625-1.334c-.426-.823-.71-1.727-1.08-2.565a12.484,12.484,0,0,0-4.2-4.526C509.882,590.7,508.916,590.091,507.985,590.433Z" transform="translate(-181.623 -278.745)" fill="#2f2e41"/>
    <path id="Path_146" data-name="Path 146" d="M476.753,616.995a7.43,7.43,0,0,1-1.953-1.523c-.256-.306-.469-.649-.71-.955a4.809,4.809,0,0,0-2.457-1.458,11.713,11.713,0,0,0-2.841-.284,5.032,5.032,0,0,0-1.9.233,1.963,1.963,0,0,0-1.257,1.385,2.317,2.317,0,0,0,.959,2.04,4.473,4.473,0,0,0,1.911.947,14.894,14.894,0,0,0,1.726.211c3.4.365,6.428,2.259,9.4,3.986q3.921,2.288,8,4.256a17.489,17.489,0,0,0,.135-2.514c0-.627-.05-1.589-.625-1.96a12.3,12.3,0,0,0-2.543-.78,39.445,39.445,0,0,1-5.121-2.128A25.269,25.269,0,0,1,476.753,616.995Z" transform="translate(-171.848 -284.829)" fill="#fbbebe"/>
    <ellipse id="Ellipse_31" data-name="Ellipse 31" cx="6.051" cy="6.245" rx="6.051" ry="6.245" transform="translate(313.706 299.984)" fill="#fbbebe"/>
    <path id="Path_147" data-name="Path 147" d="M507.843,599.885a10.047,10.047,0,0,0-1.172,2.252c-.71,1.574-1.918,2.915-2.507,4.584s-.6,3.811-1.811,5.174a1.815,1.815,0,0,0-.533.787,3.854,3.854,0,0,1-.057.568c-.178.5-.966.517-1.115,1.027-.043.146,0,.306-.071.452-.121.328-.547.379-.824.576-.59.408-.469,1.355-.888,1.946a1.575,1.575,0,0,1-1.513.547,5.244,5.244,0,0,1-1.57-.6,1.488,1.488,0,0,0-.568-.182,1.153,1.153,0,0,0-.653.233,4.173,4.173,0,0,0-1.634,3.534,11.79,11.79,0,0,0,.938,3.957,1.6,1.6,0,0,0,.305.59,1.329,1.329,0,0,0,1.506.117,7.011,7.011,0,0,1,1.47-.678c.938-.175,1.854.488,2.805.43a3.851,3.851,0,0,0,1.889-.853,10.509,10.509,0,0,0,2.543-2.186c.412-.561.71-1.2,1.08-1.793a22.963,22.963,0,0,1,1.527-2.091l3.494-4.372a10.061,10.061,0,0,0,.938-1.326,9.5,9.5,0,0,0,.71-2,15.7,15.7,0,0,0,.71-3.563,14.039,14.039,0,0,0-.256-2.988,10.783,10.783,0,0,0-.71-2.849C511.117,599.521,509.271,598.18,507.843,599.885Z" transform="translate(-179.755 -281.121)" fill="#2f2e41"/>
    <path id="Path_148" data-name="Path 148" d="M518.621,581.458a7.056,7.056,0,0,0-2.8-5.684,8.248,8.248,0,0,0-6.882-8.1,7.831,7.831,0,0,0-15.491.43c-2.514-.583-4.816.175-5.235,1.763s1.357,3.644,4.006,4.372a7.285,7.285,0,0,0,2.571.262,7.848,7.848,0,0,0,5.412,3.462,8.192,8.192,0,0,0,5.909,6.253,6.956,6.956,0,0,0,1.825,2.587v.6a5.123,5.123,0,1,0,10.242,0,5.735,5.735,0,0,0-.49-2.325A7.167,7.167,0,0,0,518.621,581.458Z" transform="translate(-178.373 -270.841)" fill="#f86d70"/>
    <path id="Path_149" data-name="Path 149" d="M489.917,570.2c.419-1.589,2.72-2.347,5.235-1.764a8.065,8.065,0,0,1,7.813-6.908h.518a7.516,7.516,0,0,0-2.23-.342,8.065,8.065,0,0,0-7.813,6.908c-2.514-.583-4.816.175-5.235,1.764s1.357,3.644,4.006,4.372a7.627,7.627,0,0,0,1.52.27C491.2,573.724,489.5,571.83,489.917,570.2Z" transform="translate(-178.37 -270.84)" opacity="0.1"/>
    <path id="Path_150" data-name="Path 150" d="M512.387,592.773a5.608,5.608,0,0,1,0-.6,6.8,6.8,0,0,1-1.825-2.587,8.171,8.171,0,0,1-5.909-6.26,7.826,7.826,0,0,1-5.419-3.454,6.641,6.641,0,0,1-1.513-.044,7.858,7.858,0,0,0,5.22,3.185,8.192,8.192,0,0,0,5.909,6.253,6.955,6.955,0,0,0,1.825,2.587v.6a5.289,5.289,0,0,0,5.093,5.436A5.437,5.437,0,0,1,512.387,592.773Z" transform="translate(-181.145 -275.896)" opacity="0.1"/>
    <path id="Path_151" data-name="Path 151" d="M.939-.012c.519-.006.932.554.924,1.252S1.427,2.509.908,2.515s-.932-.554-.924-1.252S.421-.005.939-.012Z" transform="translate(320.289 307.068) rotate(-37.22)" fill="#fbbebe"/>
  </g>
</svg>
